<svg width="397" height="52" xmlns="http://www.w3.org/2000/svg"><path d="m21.466 4.643-.546 4.916H4.697c-.619 0-1.092-.146-1.42-.437-.327-.291-.491-.692-.491-1.202 0-.328.09-.728.273-1.202L5.517.765h5.517L9.723 4.643h11.743ZM35.231 42.55c-.255 2.95-1.82 4.425-4.697 4.425h-9.887l.656-5.244h7.647c.4 0 .664-.073.792-.218.127-.146.227-.456.3-.929l3.769-31.571H22.996l.6-5.026h23.379l-.601 5.026h-7.1L35.23 42.55ZM19.61 26.328l-.546 4.916h-8.412L9.56 40.202c-.11.582.09.874.6.874.292 0 .93-.164 1.912-.492l3.824-1.202a20.35 20.35 0 0 0 1.748-.6l-.656 5.516a46.086 46.086 0 0 1-9.176 2.404 4.525 4.525 0 0 1-.82.054c-1.092 0-1.911-.373-2.457-1.12-.547-.746-.747-1.738-.601-2.976l1.42-11.416H0l.6-4.916h5.354l.764-6.282H1.256l.601-4.916H20.21l-.6 4.916h-7.593l-.765 6.282h8.357ZM76.088 4.643l-.546 4.916H59.319c-.619 0-1.092-.146-1.42-.437-.328-.291-.491-.692-.491-1.202 0-.328.09-.728.273-1.202L60.139.765h5.516l-1.31 3.878h11.743ZM89.853 42.55c-.255 2.95-1.82 4.425-4.698 4.425H75.27l.655-5.244h7.647c.401 0 .665-.073.792-.218.128-.146.228-.456.3-.929l3.77-31.571H77.618l.6-5.026h23.379l-.601 5.026h-7.101L89.853 42.55ZM74.23 26.328l-.546 4.916h-8.412l-1.092 8.958c-.11.582.09.874.6.874.292 0 .93-.164 1.912-.492l3.824-1.202a20.35 20.35 0 0 0 1.748-.6l-.656 5.516a46.086 46.086 0 0 1-9.176 2.404 4.525 4.525 0 0 1-.82.054c-1.092 0-1.911-.373-2.458-1.12-.546-.746-.746-1.738-.6-2.976l1.42-11.416h-5.353l.6-4.916h5.354l.764-6.282h-5.462l.601-4.916h18.353l-.6 4.916h-7.593l-.765 6.282h8.357ZM103.454 52c1.638-5.098 2.913-9.65 3.823-13.655h6.118c-1.311 4.479-2.931 9.03-4.861 13.655h-5.08ZM162.828.71h5.68l-1.693 13.929h12.618l-.601 5.025h-12.618l-2.567 21.575h15.84l-.546 5.026h-31.08l.547-5.026h9.558L162.828.71Zm-24.034.273 11.58 4.643-.765 5.735-11.525-4.643.71-5.735Zm4.534 34.904v.273c0 .218.073.327.218.327.182 0 .364-.072.546-.218a72.71 72.71 0 0 0 7.101-5.408l.546 6.063c-2.075 1.785-4.57 3.587-7.483 5.408-1.238.765-2.385 1.147-3.44 1.147-.656 0-1.184-.146-1.585-.437-.983-.619-1.475-1.73-1.475-3.332 0-.218.037-.655.11-1.31l2.403-19.282h-6.445l.6-5.135h8.303c1.092 0 1.903.292 2.43.874.529.583.72 1.366.574 2.349l-2.403 18.68Zm91.546-13.274-.546 4.971h-6.937l-1.53 13.11h-5.189l1.53-13.11h-8.74a34.35 34.35 0 0 1-2.758 7.456c-1.184 2.312-2.43 4.16-3.742 5.544l-4.533-2.294c1.529-1.784 2.767-3.469 3.714-5.053.947-1.584 1.711-3.468 2.294-5.653h-5.68l.6-4.97h5.9l1.092-9.286h-5.08l.6-4.916h5.026l.874-7.483h5.189l-.929 7.483h8.467l.928-7.483h5.135l-.929 7.483h4.97l-.545 4.916h-4.971l-1.092 9.285h6.882ZM192.542 1.038l9.941 4.643-.71 5.68-9.832-4.697.601-5.626Zm31.408 12.29h-8.521l-1.147 9.285h8.52l1.148-9.285Zm-35.45 6.281.6-4.916h7.648c1.02 0 1.82.31 2.403.929s.874 1.493.874 2.622c0 .4-.018.71-.054.928l-1.967 15.731-.164.929c1.311 1.93 2.804 3.405 4.48 4.424 2.403 1.53 5.334 2.222 8.793 2.076h23.433l-1.584 5.025h-23.815c-3.059 0-5.808-.655-8.248-1.966-1.711-.91-3.314-2.258-4.807-4.042a26.062 26.062 0 0 1-4.042 6.336l-5.516-1.42c3.641-3.824 5.735-7.83 6.281-12.017l1.693-14.639H188.5ZM267.92 0h5.626l-.71 5.9h14.693l-.6 4.915h-14.694l-.71 6.118h18.08l-.6 5.025h-18.3l-1.474 12.345h-5.626l1.475-12.345h-20.593l.601-5.025h7.538l1.639-13.164h5.462l-1.693 13.164h7.92L267.92 0Zm19.937 24.197c-2.512 3.933-5.29 7.302-8.33 10.106a43.256 43.256 0 0 1-10.187 6.991c-3.605 1.82-7.456 3.214-11.552 4.179-4.097.965-8.585 1.575-13.464 1.83l-1.694-5.026c5.098-.364 9.623-.983 13.574-1.857 3.95-.874 7.583-2.148 10.897-3.823 5.826-2.914 10.56-7.047 14.202-12.4h6.554Zm-29.878.055c-1.238 3.314-2.968 7.283-5.19 11.908h-5.898c2.075-3.715 3.914-7.684 5.517-11.908h5.571ZM324.89.437c-.837 3.314-1.947 6.937-3.331 10.87h22.723l-.601 5.134h-24.143a75.226 75.226 0 0 1-2.294 5.135h16.495c1.02 0 1.894.163 2.622.491.729.328 1.275.783 1.639 1.366.291.582.437 1.201.437 1.857 0 .983-.273 1.966-.82 2.95a32.483 32.483 0 0 1-7.974 9.668c3.605 2.367 7.865 4.46 12.781 6.281l-3.932 4.151c-5.062-2.002-9.486-4.424-13.274-7.264-4.37 2.73-9.74 4.952-16.113 6.663l-3.059-4.26c6.081-1.711 11.07-3.678 14.967-5.9a50.34 50.34 0 0 1-7.484-8.684c-4.042 7.246-8.266 13.182-12.672 17.807l-5.407-1.584c3.532-3.751 6.882-8.139 10.05-13.164 2.731-4.334 5.426-9.504 8.084-15.513h-9.395c-.765 0-1.356-.173-1.775-.519a1.656 1.656 0 0 1-.628-1.338c0-.4.09-.783.273-1.147l3.823-10.815h5.736l-2.95 8.685h7.046A74.552 74.552 0 0 0 317.6 5.98a221.1 221.1 0 0 0 1.666-5.544h5.626Zm9.177 8.903-4.861-7.319h5.735l5.244 7.32h-6.118ZM317.9 26.6a43.048 43.048 0 0 0 7.374 8.03c2.44-1.93 4.46-4.151 6.063-6.664.291-.473.437-.8.437-.983 0-.145-.082-.246-.246-.3-.164-.055-.446-.082-.846-.082H317.9ZM381.534.055l-.984 9.067h16.005l-.547 5.08h-15.95l-1.092 10.16h15.24l-.546 5.025h-15.185l-1.257 11.798h19.61l-.601 5.189h-44.298l.6-5.19h19.173l1.201-11.797h-15.13l.6-5.026h15.077l1.037-10.16h-12.18l-.71 1.694c-.328.728-.72 1.63-1.175 2.704a47.177 47.177 0 0 1-1.174 2.594h-5.954a326.55 326.55 0 0 0 4.588-10.542c.984-2.367 2.021-5.207 3.114-8.52h5.844l-1.147 3.331c-.182.62-.637 1.84-1.365 3.66h10.651l.983-9.067h5.572Z" fill="#FFF"/></svg>